<svg width="22" height="18" viewBox="0 0 22 18" fill="none" xmlns="http://www.w3.org/2000/svg">
<path d="M22 4.59375e-05C21.0424 0.675523 19.9821 1.19216 18.86 1.53005C18.2577 0.837557 17.4573 0.346738 16.567 0.123972C15.6767 -0.0987937 14.7395 -0.0427584 13.8821 0.284499C13.0247 0.611757 12.2884 1.19445 11.773 1.95376C11.2575 2.71308 10.9877 3.61238 11 4.53005V5.53005C9.24263 5.57561 7.50127 5.18586 5.93101 4.39549C4.36074 3.60513 3.01032 2.43868 2 1.00005C2 1.00005 -2 10 7 14C4.94053 15.398 2.48716 16.099 0 16C9 21 20 16 20 4.50005C19.9991 4.2215 19.9723 3.94364 19.92 3.67005C20.9406 2.66354 21.6608 1.39276 22 4.59375e-05Z" fill="white"/>
</svg>
